<?xml version="1.0" standalone="no"?><!DOCTYPE svg PUBLIC "-//W3C//DTD SVG 1.1//EN" "http://www.w3.org/Graphics/SVG/1.1/DTD/svg11.dtd"><svg t="1663600156528" class="icon" viewBox="0 0 1024 1024" version="1.1" xmlns="http://www.w3.org/2000/svg" p-id="2745" xmlns:xlink="http://www.w3.org/1999/xlink" width="200" height="200"><path d="M970.171733 40.277333L573.064533 335.189333l73.4208-174.011733 323.6864-120.900267z" fill="#E2761B" p-id="2746"></path><path d="M53.418667 40.277333l393.898666 297.710934-69.802666-176.810667L53.418667 40.277333zM827.2896 723.933867l-105.745067 162.030933 226.304 62.2592 65.024-220.706133-185.582933-3.584zM11.537067 727.517867l64.648533 220.706133 226.304-62.2592-105.813333-162.030933-185.1392 3.584z" fill="#E4761B" p-id="2747"></path><path d="M289.6896 450.1504L226.645333 545.518933l224.699734 10.001067-7.9872-241.4592-153.668267 136.0896zM733.866667 450.1504l-155.648-138.922667-5.154134 244.258134 224.290134-9.966934-63.488-95.368533zM302.455467 885.9648l134.894933-65.877333L320.853333 729.156267l-18.363733 156.842666zM586.24 820.1216l135.2704 65.8432-18.7392-156.842667-116.5312 90.999467z" fill="#E4761B" p-id="2748"></path><path d="M721.544533 885.9648l-135.304533-65.877333 10.786133 88.234666-1.2288 37.102934 125.7472-59.460267zM302.455467 885.9648l125.7472 59.460267-0.8192-37.102934 9.966933-88.200533-134.894933 65.8432z" fill="#D7C1B3" p-id="2749"></path><path d="M430.1824 670.856533l-112.5376-33.109333 79.428267-36.352 33.109333 69.461333zM593.408 670.856533l33.109333-69.461333 79.872 36.317867-112.981333 33.109333z" fill="#233447" p-id="2750"></path><path d="M302.455467 885.9648l19.182933-162.030933-124.928 3.584 105.745067 158.446933zM702.3616 723.933867l19.1488 162.030933 105.7792-158.446933-124.928-3.584zM797.354667 545.518933l-224.290134 10.001067 20.753067 115.336533 33.109333-69.461333 79.837867 36.317867 90.589867-92.16zM317.610667 637.713067l79.803733-36.317867 32.768 69.461333 21.128533-115.370666-224.699733-9.966934 90.999467 92.194134z" fill="#CD6116" p-id="2751"></path><path d="M226.645333 545.518933l94.208 183.6032-3.208533-91.409066-90.999467-92.16zM706.7648 637.713067l-3.9936 91.409066 94.583467-183.6032-90.589867 92.194134zM451.345067 555.485867l-21.162667 115.370666 26.350933 136.0896 5.973334-179.2-11.1616-72.226133zM573.064533 555.485867l-10.786133 71.850666 4.778667 179.6096 26.760533-136.0896-20.753067-115.370666z" fill="#E4751F" p-id="2752"></path><path d="M593.8176 670.856533l-26.760533 136.0896 19.182933 13.175467 116.5312-90.999467 3.9936-91.409066-112.981333 33.109333zM317.6448 637.713067l3.1744 91.409066 116.565333 90.999467 19.114667-13.175467-26.3168-136.0896-112.5376-33.109333z" fill="#F6851B" p-id="2753"></path><path d="M595.797333 945.425067l1.2288-37.102934-10.001066-8.8064H436.565333l-9.181866 8.8064 0.8192 37.102934-125.7472-59.460267 43.9296 35.908267 88.9856 61.883733h152.849066l89.429334-61.883733 43.861333-35.908267-125.713067 59.460267z" fill="#C0AD9E" p-id="2754"></path><path d="M586.24 820.1216l-19.182933-13.175467h-110.523734l-19.182933 13.175467-9.966933 88.200533 9.181866-8.8064h150.459734l9.966933 8.8064-10.752-88.200533z" fill="#161616" p-id="2755"></path><path d="M986.9312 354.372267l33.928533-162.850134-50.688-151.2448-383.931733 284.945067 147.6608 124.928 208.725333 61.064533 46.318934-53.896533-19.968-14.336 31.914666-29.149867-24.746666-19.182933 31.9488-24.337067-21.162667-15.940266zM3.140267 191.522133l33.928533 162.816-21.538133 15.9744 31.914666 24.337067-24.337066 19.182933 31.914666 29.115734-19.968 14.370133 45.909334 53.896533 208.725333-61.098666 147.6608-124.928L53.4528 40.277333 3.140267 191.488z" fill="#763D16" p-id="2756"></path><path d="M942.626133 511.214933l-208.725333-61.098666 63.488 95.402666-94.6176 183.6032 124.5184-1.604266h185.582933l-70.2464-216.302934zM289.6896 450.1504l-208.725333 61.064533-69.4272 216.302934h185.173333l124.1088 1.604266-94.208-183.6032 63.0784-95.368533zM573.064533 555.485867l13.175467-230.263467 60.654933-164.0448H377.514667l59.835733 164.0448 13.994667 230.263467 4.778666 72.635733 0.4096 178.824533h110.523734l0.8192-178.7904 5.188266-72.635733z" fill="#F6851B" p-id="2757"></path></svg>